<?xml version="1.0" standalone="no"?>
<!DOCTYPE svg PUBLIC "-//W3C//DTD SVG 1.1//EN" "http://www.w3.org/Graphics/SVG/1.1/DTD/svg11.dtd" >
<svg>
<metadata>
Created by FontForge 20090622 at Mon Feb 17 10:48:07 2014
 By ffonts
Imaki &#194;&#169; (Neale Davidson). 2011. All Rights Reserved
</metadata>
<defs>
<font id="Imaki-Italic" horiz-adv-x="1350" >
  <font-face 
    font-family="Imaki"
    font-weight="400"
    font-style="italic"
    font-stretch="normal"
    units-per-em="2048"
    panose-1="2 0 5 0 0 0 0 9 0 0"
    ascent="1638"
    descent="-410"
    x-height="1050"
    cap-height="1400"
    bbox="-357 -400 2324 2000"
    underline-thickness="150"
    underline-position="-142"
    slope="-15"
    unicode-range="U+0020-U+F002"
  />
<missing-glyph horiz-adv-x="1650" 
d="M0 200v1100q0 200 200 200h1100q200 0 200 -200v-1100q0 -200 -200 -200h-1100q-200 0 -200 200zM1475 201v1099q0 175 -175 175h-1100q-174 0 -175 -175v-1100q1 -175 175 -175h1101q174 0 174 176z" />
    <glyph glyph-name=".notdef" horiz-adv-x="1650" 
d="M0 200v1100q0 200 200 200h1100q200 0 200 -200v-1100q0 -200 -200 -200h-1100q-200 0 -200 200zM1475 201v1099q0 175 -175 175h-1100q-174 0 -175 -175v-1100q1 -175 175 -175h1101q174 0 174 176z" />
    <glyph glyph-name=".null" horiz-adv-x="0" 
 />
    <glyph glyph-name="nonmarkingreturn" horiz-adv-x="508" 
 />
    <glyph glyph-name="space" unicode=" " horiz-adv-x="900" 
 />
    <glyph glyph-name="space" unicode="&#xa0;" horiz-adv-x="900" 
 />
    <glyph glyph-name="exclam" unicode="!" horiz-adv-x="500" 
d="M94 350l281 1050h350l-281 -1050h-350zM50 0q-40 0 -40 31q0 9 3 19l41 150q13 50 63 50h250q40 0 40 -31q0 -9 -3 -19l-41 -150q-13 -50 -63 -50h-250z" />
    <glyph glyph-name="quotedbl" unicode="&#x22;" horiz-adv-x="950" 
d="M541 900q-236 0 -236 186q0 50 17 114l40 150q13 50 63 50h250q40 0 40 -31q0 -9 -3 -19l-107 -400q-14 -50 -64 -50zM991 900q-236 0 -236 186q0 50 17 114l40 150q13 50 63 50h250q40 0 40 -31q0 -9 -3 -19l-107 -400q-14 -50 -64 -50z" />
    <glyph glyph-name="numbersign" unicode="#" horiz-adv-x="1450" 
d="M361 600l53 200h-200l54 200h200l54 200h350l-54 -200h200l54 200h350l-54 -200h200l-54 -200h-200l-53 -200h200l-54 -200h-200l-53 -200h-350l53 200h-200l-53 -200h-350l53 200h-200l54 200h200zM764 800l-53 -200h200l53 200h-200z" />
    <glyph glyph-name="dollar" unicode="$" horiz-adv-x="1400" 
d="M785 1250l40 150h350l-40 -150h450l-54 -200h-750q-150 0 -176 -100q-4 -15 -4 -28q0 -72 127 -72h300q381 0 381 -216q0 -38 -12 -84l-13 -50q-80 -300 -530 -300l-54 -200h-350l54 200h-450l53 200h750q150 0 177 100l13 50q4 13 4 25q0 68 -127 75h-300
q-381 0 -381 216q0 38 12 84q78 291 530 300z" />
    <glyph glyph-name="percent" unicode="%" horiz-adv-x="2150" 
d="M1797 550q10 36 10 65q0 135 -206 135q-250 0 -304 -200l-26 -100q-10 -36 -10 -65q0 -135 206 -135q250 0 304 200zM1105 950q9 35 9 64q0 136 -206 136q-250 0 -303 -200l-27 -100q-10 -36 -10 -65q0 -135 206 -135q250 0 304 200zM1471 1192l204 208h400l-441 -450
h271q267 0 267 -234q0 -72 -25 -166l-26 -100q-108 -400 -508 -400h-400q-255 0 -304 163l-209 -213h-400l442 450h-221q-316 0 -316 249q0 67 23 151l27 100q107 400 507 400h450q220 0 259 -158z" />
    <glyph glyph-name="ampersand" unicode="&#x26;" horiz-adv-x="1400" 
d="M854 200l-54 -200h-350l54 200q-382 8 -382 220q0 37 12 80l13 50q31 116 138 196q-42 48 -42 120q0 39 12 84q78 292 530 300l40 150h350l-40 -150h450l-54 -200h-750q-150 0 -176 -100q-4 -15 -4 -28q0 -72 127 -72h350l-54 -200h-350q-150 0 -177 -100l-13 -50
q-4 -15 -4 -28q0 -72 127 -72h750l-53 -200h-450z" />
    <glyph glyph-name="quotesingle" unicode="'" horiz-adv-x="500" 
d="M541 900q-236 0 -236 186q0 50 17 114l40 150q13 50 63 50h250q40 0 40 -31q0 -9 -3 -19l-107 -400q-14 -50 -64 -50z" />
    <glyph glyph-name="parenleft" unicode="(" horiz-adv-x="850" 
d="M1075 1400q-350 0 -484 -500l-107 -400q-37 -138 -37 -239q0 -261 253 -261l-54 -200h-100q-457 0 -457 406q0 127 45 294l107 400q188 700 788 700h100z" />
    <glyph glyph-name="parenright" unicode=")" horiz-adv-x="850" 
d="M429 1600h100q457 0 457 -406q0 -127 -45 -294l-107 -400q-188 -700 -788 -700h-100l54 200q350 0 484 500l107 400q37 138 37 239q0 261 -253 261z" />
    <glyph glyph-name="asterisk" unicode="*" horiz-adv-x="1100" 
d="M627 1221l48 179h350l-48 -179l235 129l33 -250l-272 -150l191 -150l-167 -250l-165 129l-48 -179h-350l48 179l-235 -129l-33 250l273 150l-192 150l167 250z" />
    <glyph glyph-name="plus" unicode="+" horiz-adv-x="1300" 
d="M561 600h-400l53 200h400l108 400h350l-108 -400h400l-53 -200h-400l-107 -400h-350z" />
    <glyph glyph-name="comma" unicode="," horiz-adv-x="500" 
d="M233 -250q-237 0 -237 187q0 50 17 113l41 150q13 50 63 50h250q40 0 40 -31q0 -9 -3 -19l-108 -400q-13 -50 -63 -50z" />
    <glyph glyph-name="hyphen" unicode="-" horiz-adv-x="1300" 
d="M161 600l53 200h1150l-53 -200h-1150z" />
    <glyph glyph-name="hyphen" unicode="&#xad;" horiz-adv-x="1300" 
d="M161 600l53 200h1150l-53 -200h-1150z" />
    <glyph glyph-name="period" unicode="." horiz-adv-x="500" 
d="M50 0q-40 0 -40 31q0 9 3 19l41 150q13 50 63 50h250q40 0 40 -31q0 -9 -3 -19l-41 -150q-13 -50 -63 -50h-250z" />
    <glyph glyph-name="slash" unicode="/" horiz-adv-x="1450" 
d="M1325 1400h400l-1375 -1400h-400z" />
    <glyph glyph-name="zero" unicode="0" horiz-adv-x="1550" 
d="M539 700q-37 -138 -37 -239q0 -261 253 -261q350 0 484 500q37 138 37 239q0 261 -253 261q-350 0 -484 -500zM1176 1400q457 0 457 -407q0 -127 -44 -293q-188 -700 -788 -700h-200q-457 0 -457 407q0 127 44 293q188 700 788 700h200z" />
    <glyph glyph-name="one" unicode="1" horiz-adv-x="600" 
d="M825 1400l-375 -1400h-350l322 1200h-100l53 200h450z" />
    <glyph glyph-name="two" unicode="2" 
d="M761 600q-250 0 -304 -200l-53 -200h850l-54 -200h-1200l107 400q107 400 507 400h200q250 0 304 200q10 36 10 65q0 135 -206 135h-600l53 200h800q316 0 316 -249q0 -67 -23 -151q-107 -400 -507 -400h-200z" />
    <glyph glyph-name="three" unicode="3" 
d="M511 600l53 200h250q250 0 304 200q10 36 10 65q0 135 -206 135h-600l53 200h800q316 0 316 -249q0 -67 -23 -151q-54 -200 -180 -300q42 -57 42 -148q0 -67 -23 -152q-107 -400 -507 -400h-800l54 200h600q250 0 303 200q10 36 10 65q0 135 -206 135h-250z" />
    <glyph glyph-name="four" unicode="4" 
d="M160 600l215 800h350l-161 -600h500l81 300h350l-295 -1100h-349l160 600h-851z" />
    <glyph glyph-name="five" unicode="5" 
d="M1014 800q316 0 316 -249q0 -67 -23 -151q-107 -400 -507 -400h-800l54 200h600q250 0 303 200q10 36 10 65q0 135 -206 135h-600l214 800h1200l-53 -200h-850l-108 -400h450z" />
    <glyph glyph-name="six" unicode="6" horiz-adv-x="1500" 
d="M600 0q-457 0 -457 406q0 127 45 294q187 700 787 700h750l-53 -200h-650q-271 0 -413 -300h582q316 0 316 -249q0 -67 -23 -151l-27 -100q-107 -400 -507 -400h-350zM538 700q-37 -138 -37 -239q0 -261 253 -261h50q250 0 303 200l27 100q10 36 10 65q0 135 -206 135
h-400z" />
    <glyph glyph-name="seven" unicode="7" 
d="M657 400l-107 -400h-350l107 400q107 400 507 400q250 0 304 200l54 200h-850l53 200h1200l-107 -400q-107 -400 -507 -400q-250 0 -304 -200z" />
    <glyph glyph-name="eight" unicode="8" 
d="M814 800q250 0 304 200q10 36 10 65q0 135 -206 135q-250 0 -304 -200q-10 -36 -10 -65q0 -135 206 -135zM400 0q-316 0 -316 249q0 67 23 151q54 200 181 300q-43 58 -43 149q0 67 23 151q107 400 507 400h400q316 0 316 -249q0 -67 -23 -151q-54 -200 -180 -300
q42 -57 42 -148q0 -67 -23 -152q-107 -400 -507 -400h-400zM761 600q-250 0 -304 -200q-9 -35 -9 -64q0 -136 206 -136q250 0 303 200q10 36 10 65q0 135 -206 135z" />
    <glyph glyph-name="nine" unicode="9" horiz-adv-x="1500" 
d="M1125 1400q457 0 457 -407q0 -127 -44 -293q-188 -700 -788 -700h-750l54 200h650q271 0 412 300h-582q-316 0 -316 249q0 67 23 151l27 100q107 400 507 400h350zM1188 700q37 138 37 239q0 261 -253 261h-50q-250 0 -304 -200l-27 -100q-9 -35 -9 -64q0 -136 206 -136
h400z" />
    <glyph glyph-name="colon" unicode=":" horiz-adv-x="500" 
d="M50 0q-40 0 -40 31q0 9 3 19l41 150q13 50 63 50h250q40 0 40 -31q0 -9 -3 -19l-41 -150q-13 -50 -63 -50h-250zM211 600q-40 0 -40 31q0 9 3 19l40 150q14 50 64 50h250q39 0 39 -31q0 -8 -3 -19l-40 -150q-13 -50 -63 -50h-250z" />
    <glyph glyph-name="semicolon" unicode=";" horiz-adv-x="500" 
d="M211 600q-40 0 -40 31q0 9 3 19l40 150q14 50 64 50h250q39 0 39 -31q0 -8 -3 -19l-40 -150q-13 -50 -63 -50h-250zM233 -250q-237 0 -237 187q0 50 17 113l41 150q13 50 63 50h250q40 0 40 -31q0 -9 -3 -19l-108 -400q-13 -50 -63 -50z" />
    <glyph glyph-name="semicolon" unicode="&#x37e;" horiz-adv-x="500" 
d="M211 600q-40 0 -40 31q0 9 3 19l40 150q14 50 64 50h250q39 0 39 -31q0 -8 -3 -19l-40 -150q-13 -50 -63 -50h-250zM233 -250q-237 0 -237 187q0 50 17 113l41 150q13 50 63 50h250q40 0 40 -31q0 -9 -3 -19l-108 -400q-13 -50 -63 -50z" />
    <glyph glyph-name="less" unicode="&#x3c;" horiz-adv-x="1000" 
d="M904 200h-400l-310 525l591 525h400l-591 -525z" />
    <glyph glyph-name="equal" unicode="=" horiz-adv-x="1300" 
d="M80 300l54 200h1150l-54 -200h-1150zM241 900l54 200h1150l-54 -200h-1150z" />
    <glyph glyph-name="greater" unicode="&#x3e;" horiz-adv-x="1000" 
d="M644 725l-309 525h400l309 -525l-590 -525h-400z" />
    <glyph glyph-name="question" unicode="?" 
d="M657 400l-13 -50h-350l13 50q107 400 507 400q250 0 304 200q10 36 10 65q0 135 -206 135h-600l53 200h800q316 0 316 -249q0 -67 -23 -151q-107 -400 -507 -400q-250 0 -304 -200zM250 0q-40 0 -40 31q0 9 3 19l41 150q13 50 63 50h250q40 0 40 -31q0 -9 -3 -19
l-41 -150q-13 -50 -63 -50h-250z" />
    <glyph glyph-name="at" unicode="@" horiz-adv-x="1550" 
d="M1265 801l-101 -1q-150 0 -175 -95l-13 -50q-4 -15 -4 -29q0 -72 125 -76h100zM1022 1200q-350 0 -484 -500q-37 -138 -37 -239q0 -261 253 -261h700l-54 -200h-800q-457 0 -457 406q0 127 45 294q187 700 787 700h350q377 0 377 -228q0 -44 -14 -97l-194 -725h-500
q-381 0 -381 218q0 40 13 87l13 51q79 294 529 294q150 0 177 100q4 15 4 28q0 72 -127 72h-200z" />
    <glyph glyph-name="A" unicode="A" horiz-adv-x="1500" 
d="M1161 600l161 600h-300q-350 0 -484 -500l-27 -100h650zM457 400l-107 -400h-350l188 700q187 700 787 700h750l-375 -1400h-350l107 400h-650z" />
    <glyph glyph-name="B" unicode="B" 
d="M814 800q250 0 304 200q10 36 10 65q0 135 -206 135h-250l-108 -400h250zM761 600h-250l-107 -400h250q250 0 303 200q10 36 10 65q0 135 -206 135zM1175 1400q316 0 316 -249q0 -67 -23 -151q-54 -200 -180 -300q42 -57 42 -148q0 -67 -23 -152q-107 -400 -507 -400
h-800l375 1400h800z" />
    <glyph glyph-name="C" unicode="C" 
d="M1522 1200h-500q-350 0 -484 -500q-37 -138 -37 -239q0 -261 253 -261h500l-54 -200h-600q-457 0 -457 406q0 127 45 294q187 700 787 700h600z" />
    <glyph glyph-name="D" unicode="D" horiz-adv-x="1500" 
d="M672 1200l-268 -1000h300q350 0 484 500q37 138 37 239q0 261 -253 261h-300zM1125 1400q457 0 457 -407q0 -127 -44 -293q-188 -700 -788 -700h-749l374 1400h750z" />
    <glyph glyph-name="E" unicode="E" 
d="M515 600q-14 -76 -14 -138q0 -262 253 -262h500l-54 -200h-600q-457 0 -457 406q0 127 45 294q187 700 787 700h600l-53 -200h-500q-313 0 -454 -400h746l-53 -200h-746z" />
    <glyph glyph-name="F" unicode="F" 
d="M511 600l-161 -600h-350l188 700q187 700 787 700h600l-53 -200h-500q-313 0 -454 -400h746l-53 -200h-750z" />
    <glyph glyph-name="G" unicode="G" horiz-adv-x="1500" 
d="M600 0q-457 0 -457 406q0 127 45 294q187 700 787 700h750l-53 -200h-650q-350 0 -484 -500q-37 -138 -37 -239q0 -261 253 -261h300l107 400h-300l53 200h650l-214 -800h-750z" />
    <glyph glyph-name="H" unicode="H" horiz-adv-x="1450" 
d="M511 600l-161 -600h-349l374 1400h350l-161 -600h600l161 600h350l-375 -1400h-350l161 600h-600z" />
    <glyph glyph-name="I" unicode="I" horiz-adv-x="500" 
d="M725 1400l-375 -1400h-349l374 1400h350z" />
    <glyph glyph-name="J" unicode="J" horiz-adv-x="850" 
d="M1075 1400l-187 -700q-188 -700 -788 -700h-100l54 200q350 0 484 500l187 700h350z" />
    <glyph glyph-name="K" unicode="K" 
d="M1118 1000l107 398l350 2l-107 -400q-54 -201 -182 -301q44 -58 44 -150q0 -67 -23 -151l-107 -397l-350 -1l107 398q9 35 9 64q0 136 -206 136h-250l-160 -598h-349l160 598h-1l215 802h350l-161 -600h250q250 0 304 200z" />
    <glyph glyph-name="L" unicode="L" 
d="M725 1400l-187 -700q-37 -138 -37 -239q0 -261 253 -261h500l-54 -200h-600q-457 0 -457 406q0 127 45 294l187 700h350z" />
    <glyph glyph-name="M" unicode="M" horiz-adv-x="2100" 
d="M1725 1400q457 0 457 -407q0 -127 -44 -293l-188 -700h-350l188 700q37 138 37 239q0 261 -253 261h-100l-322 -1200h-349l321 1200h-450l-322 -1200h-349l374 1400h1350z" />
    <glyph glyph-name="N" unicode="N" horiz-adv-x="1500" 
d="M350 0h-349l374 1400h750q457 0 457 -407q0 -127 -44 -293l-188 -700h-350l188 700q37 138 37 239q0 261 -253 261h-300z" />
    <glyph glyph-name="O" unicode="O" horiz-adv-x="1550" 
d="M539 700q-37 -138 -37 -239q0 -261 253 -261q350 0 484 500q37 138 37 239q0 261 -253 261q-350 0 -484 -500zM1176 1400q457 0 457 -407q0 -127 -44 -293q-188 -700 -788 -700h-200q-457 0 -457 407q0 127 44 293q188 700 788 700h200z" />
    <glyph glyph-name="P" unicode="P" 
d="M1175 1400q316 0 316 -249q0 -67 -23 -151q-107 -400 -507 -400h-450l-161 -600h-349l374 1400h800zM564 800h250q250 0 304 200q10 36 10 65q0 135 -206 135h-250z" />
    <glyph glyph-name="Q" unicode="Q" horiz-adv-x="1550" 
d="M1029 29q-106 -29 -228 -29h-200q-457 0 -457 407q0 127 44 293q188 700 788 700h200q457 0 457 -407q0 -127 -44 -293q-91 -337 -277 -512l138 -188h-400zM888 221l-277 379h400l121 -166q64 108 107 266q37 138 37 239q0 261 -253 261q-350 0 -484 -500
q-37 -138 -37 -239q0 -261 253 -261q71 0 133 21z" />
    <glyph glyph-name="R" unicode="R" 
d="M1175 1400q316 0 316 -249q0 -67 -23 -151q-54 -201 -182 -301q44 -58 44 -150q0 -67 -23 -151l-107 -397l-350 -1l107 398q9 35 9 64q0 136 -206 136h-250l-160 -598h-349l374 1400h800zM564 800h250q250 0 304 200q10 36 10 65q0 135 -206 135h-250z" />
    <glyph glyph-name="S" unicode="S" 
d="M561 600q-316 0 -316 249q0 67 23 151q107 400 507 400h800l-53 -200h-600q-250 0 -304 -200q-10 -36 -10 -65q0 -135 206 -135h200q316 0 316 -249q0 -67 -23 -151q-107 -400 -507 -400h-800l54 200h600q250 0 303 200q10 36 10 65q0 135 -206 135h-200z" />
    <glyph glyph-name="T" unicode="T" horiz-adv-x="1400" 
d="M1625 1400l-53 -200h-450l-322 -1200h-349l321 1200h-450l53 200h1250z" />
    <glyph glyph-name="U" unicode="U" horiz-adv-x="1550" 
d="M1425 1399l350 1l-186 -700q-188 -700 -788 -700h-200q-457 0 -457 407q0 127 44 293l187 701l350 -1l-187 -700h1q-37 -138 -37 -239q0 -261 253 -261q350 0 484 500z" />
    <glyph glyph-name="V" unicode="V" horiz-adv-x="1550" 
d="M1425 1399l350 1l-186 -700l-690 -700h-399l-312 700l187 701l350 -1l-162 -600h1l216 -500l484 500z" />
    <glyph glyph-name="W" unicode="W" horiz-adv-x="2100" 
d="M600 0q-457 0 -457 406q0 127 45 294l187 700h350l-187 -700q-37 -138 -37 -239q0 -261 253 -261h100l321 1200h349l-320 -1200h450l321 1200h349l-374 -1400h-1350z" />
    <glyph glyph-name="X" unicode="X" horiz-adv-x="1450" 
d="M638 700l-313 700h400l188 -420l412 420h400l-687 -700l312 -700h-400l-187 420l-413 -420h-400z" />
    <glyph glyph-name="Y" unicode="Y" horiz-adv-x="1400" 
d="M1625 1400l-134 -500q-107 -400 -507 -400h-50l-134 -500h-349l133 500h-49q-317 0 -317 249q0 67 23 151l134 500h350l-134 -500q-9 -35 -9 -64q0 -136 206 -136h50q250 0 303 200l134 500h350z" />
    <glyph glyph-name="Z" unicode="Z" horiz-adv-x="1450" 
d="M1172 1200h-850l53 200h1300l-53 -200l-1118 -1000h850l-54 -200h-1300l54 200z" />
    <glyph glyph-name="bracketleft" unicode="[" horiz-adv-x="850" 
d="M1075 1400h-350l-375 -1400h350l-54 -200h-700l483 1800h700z" />
    <glyph glyph-name="backslash" unicode="\" horiz-adv-x="1450" 
d="M325 1400h400l625 -1400h-400z" />
    <glyph glyph-name="bracketright" unicode="]" horiz-adv-x="850" 
d="M429 1600h700l-483 -1800h-700l54 200h350l375 1400h-350z" />
    <glyph glyph-name="asciicircum" unicode="^" horiz-adv-x="1150" 
d="M956 1700l-204 -200h-350l484 500h300l216 -500h-350z" />
    <glyph glyph-name="underscore" unicode="_" horiz-adv-x="1500" 
d="M1500 0l-54 -200h-1500l55 200h1499z" />
    <glyph glyph-name="grave" unicode="`" horiz-adv-x="800" 
d="M523 1950q13 50 63 50q450 0 479 -450q-13 -50 -63 -50q-450 0 -479 450z" />
    <glyph glyph-name="a" unicode="a" 
d="M971 451l-350 -1q-152 -5 -177 -100l-14 -50q-4 -15 -4 -27q0 -73 128 -73h350zM1200 0h-750q-382 0 -382 216q0 39 12 84l14 51q79 294 529 294h250q150 0 178 105q4 15 4 28q0 72 -127 72h-700l53 200h750q377 0 377 -228q0 -44 -14 -97z" />
    <glyph glyph-name="b" unicode="b" 
d="M0 0l376 1400h349l-94 -350h450q316 0 316 -249q0 -67 -23 -151l-67 -250q-107 -400 -507 -400h-800zM404 200h250q250 0 303 200l67 250q10 36 10 65q0 135 -206 135h-250z" />
    <glyph glyph-name="c" unicode="c" horiz-adv-x="1200" 
d="M1104 200l-53 -200h-651q-316 0 -316 249q0 67 23 151l67 250q107 400 507 400h651l-53 -200h-451q-250 0 -304 -200l-67 -250q-9 -35 -9 -64q0 -136 206 -136h450z" />
    <glyph glyph-name="d" unicode="d" 
d="M400 0q-316 0 -316 249q0 67 23 151l67 250q107 400 507 400h450l94 350h349l-374 -1400h-800zM1078 850h-250q-250 0 -304 -200l-67 -250q-9 -35 -9 -64q0 -136 206 -136h250z" />
    <glyph glyph-name="e" unicode="e" 
d="M509 595q49 5 102 5h250q150 0 177 100l13 50q4 15 4 28q0 72 -127 72h-200q-150 0 -178 -102zM201 750q80 300 480 300h350q382 0 382 -216q0 -39 -12 -84l-13 -50q-81 -300 -531 -300h-250q-150 0 -177 -100q-4 -15 -4 -27q0 -73 128 -73h700l-54 -200h-750
q-377 0 -377 228q0 44 14 97z" />
    <glyph glyph-name="f" unicode="f" horiz-adv-x="900" 
d="M701 750l-201 -750h-350l201 750h-150l54 200h150l13 50q107 400 507 400h200l-53 -200q-250 0 -304 -200l-13 -50h150l-54 -200h-150z" />
    <glyph glyph-name="g" unicode="g" 
d="M1078 850h-250q-250 0 -304 -200l-67 -250q-9 -35 -9 -64q0 -136 206 -136h250zM850 0h-450q-316 0 -316 249q0 67 23 151l67 250q107 400 507 400h800l-281 -1050q-107 -400 -507 -400h-600l53 200h400q250 0 304 200z" />
    <glyph glyph-name="h" unicode="h" 
d="M350 0h-350l376 1400h349l-94 -350h450q316 0 316 -249q0 -67 -23 -151l-174 -650l-350 1l174 649q10 36 10 65q0 135 -206 135h-250z" />
    <glyph glyph-name="i" unicode="i" horiz-adv-x="500" 
d="M350 0h-350l281 1050h350zM358 1150q-39 0 -39 31q0 8 3 19l40 150q13 50 63 50h250q40 0 40 -31q0 -9 -3 -19l-40 -150q-14 -50 -64 -50h-250z" />
    <glyph glyph-name="j" unicode="j" horiz-adv-x="500" 
d="M358 1150q-39 0 -39 31q0 8 3 19l40 150q13 50 63 50h250q40 0 40 -31q0 -9 -3 -19l-40 -150q-14 -50 -64 -50h-250zM281 1050h350l-281 -1050q-107 -400 -507 -400h-200l53 200q250 0 304 200z" />
    <glyph glyph-name="k" unicode="k" 
d="M416 248l-66 -248h-350l80 300l296 1100h349l-212 -791l618 441h400l-786 -561l505 -489h-400l-335 325z" />
    <glyph glyph-name="l" unicode="l" horiz-adv-x="750" 
d="M457 400q-9 -35 -9 -64q0 -136 206 -136l-54 -200h-200q-316 0 -316 249q0 67 23 151l268 1000h350z" />
    <glyph glyph-name="m" unicode="m" horiz-adv-x="1900" 
d="M1631 1050q316 0 316 -249q0 -67 -23 -151l-174 -650l-350 1l174 649q10 36 10 65q0 135 -206 135h-100l-228 -850h-350l228 850h-350l-228 -850h-350l281 1050h1350z" />
    <glyph glyph-name="n" unicode="n" 
d="M350 0h-350l281 1050h800q316 0 316 -249q0 -67 -23 -151l-174 -650l-350 1l174 649q10 36 10 65q0 135 -206 135h-250z" />
    <glyph glyph-name="o" unicode="o" 
d="M400 0q-316 0 -316 249q0 67 23 151l67 250q107 400 507 400h450q268 0 268 -235q0 -71 -25 -165l-67 -250q-107 -400 -507 -400h-400zM1024 650q10 36 10 65q0 135 -206 135q-250 0 -304 -200l-67 -250q-9 -35 -9 -64q0 -136 206 -136q250 0 303 200z" />
    <glyph glyph-name="p" unicode="p" 
d="M1081 1050q316 0 316 -249q0 -67 -23 -151l-67 -250q-107 -400 -507 -400h-450l-94 -350h-349l374 1400h800zM404 200h250q250 0 303 200l67 250q10 36 10 65q0 135 -206 135h-250z" />
    <glyph glyph-name="q" unicode="q" 
d="M1481 1050l-376 -1400h-349l94 350h-450q-316 0 -316 249q0 67 23 151l67 250q107 400 507 400h800zM1078 850h-250q-250 0 -304 -200l-67 -250q-9 -35 -9 -64q0 -136 206 -136h250z" />
    <glyph glyph-name="r" unicode="r" 
d="M350 0h-350l281 1050h800q316 0 316 -249q0 -67 -23 -151h-350q10 36 10 65q0 135 -206 135h-250z" />
    <glyph glyph-name="s" unicode="s" 
d="M924 650q382 0 382 -216q0 -39 -12 -84l-14 -50q-80 -300 -530 -300h-750l54 200h700q150 0 176 100l14 50q4 15 4 28q0 72 -127 72h-250q-382 0 -382 216q0 39 12 84q80 300 530 300h750l-53 -200h-700q-150 0 -177 -100q-4 -15 -4 -28q0 -72 127 -72h250z" />
    <glyph glyph-name="t" unicode="t" horiz-adv-x="900" 
d="M931 1050l-53 -200h-150l-121 -450q-9 -35 -9 -64q0 -136 206 -136l-54 -200h-200q-316 0 -316 249q0 67 23 151l121 450h-150l53 200h150l54 200h350l-54 -200h150z" />
    <glyph glyph-name="u" unicode="u" 
d="M1131 1050h350l-174 -650q-107 -400 -507 -400h-400q-316 0 -316 249q0 67 23 151l174 650h350l-174 -650q-9 -35 -9 -64q0 -136 206 -136q250 0 303 200z" />
    <glyph glyph-name="v" unicode="v" 
d="M400 0l-169 1050h350l99 -750l501 750h350l-725 -1050h-406z" />
    <glyph glyph-name="w" unicode="w" horiz-adv-x="1900" 
d="M400 0q-316 0 -316 249q0 67 23 151l174 650l350 -1l-174 -649q-9 -35 -9 -64q0 -136 206 -136h100l227 850h350l-227 -850h100q250 0 303 200l174 650h350l-174 -650q-107 -400 -507 -400h-950z" />
    <glyph glyph-name="x" unicode="x" 
d="M541 525l-310 525h400l172 -292l328 292h400l-590 -525l309 -525h-400l-172 292l-328 -292h-400z" />
    <glyph glyph-name="y" unicode="y" 
d="M1131 1050h350l-281 -1050q-107 -400 -507 -400h-600l53 200h400q250 0 304 200h-450q-316 0 -316 249q0 67 23 151l174 649l350 -1l-174 -648q-9 -35 -9 -64q0 -136 206 -136h250z" />
    <glyph glyph-name="z" unicode="z" 
d="M1028 850h-800l53 200h1200l-53 -200l-974 -650h800l-54 -200h-1200l54 200z" />
    <glyph glyph-name="braceleft" unicode="{" horiz-adv-x="1300" 
d="M915 1040l10 -15q50 -50 75 -100q50 40 60 315q-1 46 -8 122q-21 -115 -137 -322zM925 875l-315 -65l25 -175q40 15 190 115q50 25 100 125zM1060 650q0 -90 -52 -150h-4q0 75 -15 136q10 17 71 49v-35zM974 548v-4q0 -70 -37 -100h-3v11q0 51 -23 115q0 4 48 48
q15 0 15 -70zM900 477v-29q0 -44 -29 -78h-4q-6 53 -30 107q14 27 48 67q15 0 15 -67zM48 1362q-7 -76 -8 -122q10 -275 60 -315q25 50 75 100l10 15q-116 207 -137 322zM275 750q150 -100 190 -115l25 175l-315 65q50 -100 100 -125zM40 685q61 -32 71 -49
q-15 -61 -15 -136h-3q-53 60 -53 150v35zM141 618q48 -44 48 -48q-22 -64 -22 -115v-11h-4q-37 30 -37 100v4q0 70 15 70zM215 544q34 -40 48 -67q-24 -54 -30 -107h-4q-29 34 -29 78v29q0 67 15 67zM624 1200q51 0 138.5 -25t122.5 -60q7 7 180 335h10q25 -250 25 -450v-49
q0 -126 -25 -176q-100 -50 -125 -75q-125 -100 -160 -210q35 -165 35 -239v-26q0 -100 -36 -215l-14 -10q0 275 -50 300q-25 25 -175 26q-150 -1 -175 -26q-50 -25 -50 -300l-14 10q-36 115 -36 215v26q0 74 35 239q-35 110 -160 210q-25 25 -125 75q-25 50 -25 176v49
q0 200 25 450h10q173 -328 180 -335q35 35 122.5 60t138.5 25h148z" />
    <glyph glyph-name="bar" unicode="|" horiz-adv-x="500" 
d="M779 1600l-483 -1800h-350l483 1800h350z" />
    <glyph glyph-name="braceright" unicode="}" horiz-adv-x="1400" 
d="M1127 1394q16 -46 63 -79q0 -9 -63 -27q-37 0 -63 -56q-29 0 -56 36v16q52 76 111 114zM1089 1085q61 -160 61 -285v-15q0 -35 -25 -85q-100 -150 -175 -160h-25q-85 0 -150 60q-75 100 -76 175l11 25q114 25 140 50zM760 765q56 -165 140 -175l24 1q61 0 126 69l-15 14
q-40 -23 -75 -24l-35 1q-75 9 -165 114zM1087 537q-44 -67 -126 -166h-4q-8 34 -8 87v40l4 8q87 21 130 39zM81 1398q59 -38 111 -114v-16q-27 -36 -56 -36q-26 56 -63 56q-63 18 -63 27q47 33 63 79zM350 850q26 -25 140 -50l11 -25q-1 -75 -76 -175q-65 -60 -150 -60h-25
q-75 10 -175 160q-25 50 -25 85v15q0 125 61 285zM275 651l-35 -1q-35 1 -75 24l-15 -14q65 -69 126 -69l24 -1q84 10 140 175q-90 -105 -165 -114zM117 545q43 -18 130 -39l4 -8v-40q0 -53 -8 -87h-4q-82 99 -126 166zM676 1250q24 0 24 25t-25 26h-150q-25 -1 -25 -26
t24 -25h152zM600 1453q187 0 301 -93q-76 -210 -126 -320q0 -15 25 -15q15 25 75 185l25 -10l65 60l70 -70l-10 -5q-65 -25 -65 -45q0 -26 30 -56l10 -9q-75 -74 -200 -210q-140 -40 -140 -54q0 -47 15 -111q35 -125 225 -225q10 -15 14 -176l-3 -15l-70 42q-1 74 -2 109
l-24 25l-15 -1q-65 -84 -100 -84q-10 -125 -11 -160q-65 -40 -79 -215h-20q-14 175 -79 215q-1 35 -11 160q-35 0 -100 84l-15 1l-24 -25q-1 -35 -2 -109l-70 -42l-3 15q4 161 14 176q190 100 225 225q15 64 15 111q0 14 -140 54q-125 136 -200 210l10 9q30 30 30 56
q0 20 -65 45l-10 5l70 70l65 -60l25 10q60 -160 75 -185q25 0 25 15q-50 110 -126 320q114 93 301 93zM676 950q24 0 24 25t-25 26h-150q-25 -1 -25 -26t24 -25h152zM676 1050q24 0 24 25t-25 26h-150q-25 -1 -25 -26t24 -25h152zM676 1149q24 0 24 25t-25 26h-150
q-25 -1 -25 -26t24 -25h152z" />
    <glyph glyph-name="asciitilde" unicode="~" horiz-adv-x="1200" 
d="M984.5 1900q61.5 -50 111.5 -50q100 0 177 100l273 -100q-294 -350 -394 -350t-161.5 50t-111.5 50q-100 0 -177 -100l-273 100q294 350 394 350t161.5 -50z" />
    <glyph glyph-name="exclamdown" unicode="&#xa1;" horiz-adv-x="500" 
d="M631 1050l-281 -1050h-350l281 1050h350zM675 1400q40 0 40 -31q0 -9 -3 -19l-40 -150q-14 -50 -64 -50h-250q-39 0 -39 31q0 8 3 19l40 150q13 50 63 50h250z" />
    <glyph glyph-name="cent" unicode="&#xa2;" horiz-adv-x="1200" 
d="M804 200l-54 -200h-350l54 200q-316 0 -316 249q0 67 23 151l67 250q107 400 507 400l40 150h350l-40 -150h301l-54 -200h-451q-250 0 -303 -200l-67 -250q-10 -36 -10 -65q0 -135 206 -135h450l-53 -200h-300z" />
    <glyph glyph-name="sterling" unicode="&#xa3;" 
d="M254 200l107 400h-200l53 200h203q203 600 758 600h400l-53 -200h-300q-350 0 -458 -400h550l-53 -200h-550l-107 -400h650l-54 -200h-1200l54 200h200z" />
    <glyph glyph-name="currency" unicode="&#xa4;" 
d="M855 950q-42 0 -89 -66t-72 -159q-17 -63 -17 -113q0 -25 4 -46q12 -66 53 -66t88 66t72 159q17 64 17 115q0 23 -3 44q-12 66 -53 66zM540 322l-136 -122h-400l345 307q-20 52 -20 111q0 51 15 107q33 121 122 218l-181 307h400l72 -122q74 22 151 22q78 0 140 -22
l137 122h400l-345 -307q20 -51 20 -109q0 -52 -16 -109q-32 -121 -121 -218l181 -307h-400l-72 122q-74 -22 -152 -22q-77 0 -140 22z" />
    <glyph glyph-name="yen" unicode="&#xa5;" horiz-adv-x="1400" 
d="M557 400l40 150h-49q-316 0 -316 248q0 67 23 152l120 450h350l-120 -450q-10 -36 -10 -65q0 -135 206 -135h50q250 0 304 200l120 450h350l-120 -450q-108 -400 -508 -400h-50l-40 -150h200l-53 -200h-200l-54 -200h-349l54 200h-201l53 200h200z" />
    <glyph glyph-name="brokenbar" unicode="&#xa6;" horiz-adv-x="500" 
d="M214 800l215 800h350l-215 -800h-350zM511 600l-215 -800h-350l215 800h350z" />
    <glyph glyph-name="section" unicode="&#xa7;" 
d="M855 950q-42 0 -89 -66t-72 -159q-17 -63 -17 -113q0 -25 4 -46q12 -66 53 -66t88 66t72 159q17 64 17 115q0 23 -3 44q-12 66 -53 66zM1248 740q82 -62 82 -189q0 -66 -23 -151l-53 -200q-108 -400 -508 -400h-800l54 200h600q250 0 304 200l45 171q-128 -71 -269 -71
q-186 0 -284 125q-67 84 -67 193q0 19 2 39q-86 62 -86 191q0 67 23 152l54 200q107 400 507 400h800l-54 -200h-600q-250 0 -303 -200l-33 -121q129 71 269 71q186 0 285 -124q66 -85 66 -193q0 -44 -11 -93z" />
    <glyph glyph-name="dieresis" unicode="&#xa8;" horiz-adv-x="1150" 
d="M465 1550q-39 0 -39 31q0 8 3 19l40 150q13 50 63 50h250q40 0 40 -31q0 -9 -3 -19l-40 -150q-14 -50 -64 -50h-250zM1115 1550q-39 0 -39 31q0 8 3 19l40 150q13 50 63 50h250q40 0 40 -31q0 -9 -3 -19l-40 -150q-14 -50 -64 -50h-250z" />
    <glyph glyph-name="copyright" unicode="&#xa9;" horiz-adv-x="1200" 
d="M1123 1300h-250q-175 0 -242 -250q-19 -69 -19 -119q0 -131 127 -131h250l-26 -100h-300q-229 0 -229 204q0 63 22 146q94 350 394 350h300zM927 1500q-176 0 -336 -132t-210 -318q-18 -67 -18 -126q0 -107 58 -192q89 -132 265 -132t335.5 132t209.5 318q18 67 18 127
q0 106 -57 191q-89 132 -265 132zM1282 1439q71 -104 71 -235q0 -73 -22 -154q-61 -228 -258 -389t-414 -161q-218 0 -328 161q-72 104 -72 235q0 73 22 154q61 228 258 389t415 161q217 0 328 -161z" />
    <glyph glyph-name="ordfeminine" unicode="&#xaa;" horiz-adv-x="1650" 
d="M0 200v1100q0 200 200 200h1100q200 0 200 -200v-1100q0 -200 -200 -200h-1100q-200 0 -200 200zM1475 201v1099q0 175 -175 175h-1100q-174 0 -175 -175v-1100q1 -175 175 -175h1101q174 0 174 176z" />
    <glyph glyph-name="guillemotleft" unicode="&#xab;" horiz-adv-x="1600" 
d="M904 200h-400l-310 525l591 525h400l-591 -525zM1504 200h-400l-310 525l591 525h400l-591 -525z" />
    <glyph glyph-name="logicalnot" unicode="&#xac;" horiz-adv-x="1014" 
d="M293 767h840l-132 -491l-1 -1h-98l105 392h-741z" />
    <glyph glyph-name="registered" unicode="&#xae;" horiz-adv-x="1200" 
d="M1021 732h1q160 132 209 318q18 67 18 127q0 106 -57 191q-89 132 -265 132q-153 0 -294 -100h367q158 0 158 -125q0 -33 -11 -75q-27 -100 -91 -150q21 -29 21 -75q0 -33 -11 -76zM445 700q88 -100 241 -100q154 0 295 101l-143 -1l53 199q5 18 5 32q0 68 -103 68h-125
l-80 -299h-143zM592 1369l-1 -1q-160 -132 -210 -318q-17 -66 -17 -125q0 -108 57 -193q0 -1 1 -2zM695 1100h125q125 0 152 100q4 17 4 31q0 69 -103 69h-125zM1282 1439q71 -104 71 -235q0 -73 -22 -154q-61 -228 -258 -389t-414 -161q-218 0 -328 161q-72 104 -72 235
q0 73 22 154q61 228 258 389t415 161q217 0 328 -161z" />
    <glyph glyph-name="macron" unicode="&#xaf;" horiz-adv-x="1500" 
d="M1929 1600l-54 -200h-1500l55 200h1499z" />
    <glyph glyph-name="degree" unicode="&#xb0;" horiz-adv-x="674" 
d="M707 1372q-86 0 -164 -61t-101 -148q-8 -30 -8 -57q0 -51 29 -90q45 -60 132 -60t163 60t100 147q8 30 8 57q0 51 -29 91q-44 61 -130 61zM725 1442q115 0 175 -81q39 -54 39 -122q0 -36 -11 -75q-31 -114 -135 -196t-219 -82q-117 0 -175 81q-38 53 -38 120q0 37 11 77
q31 116 134 197t219 81z" />
    <glyph glyph-name="plusminus" unicode="&#xb1;" horiz-adv-x="1650" 
d="M0 200v1100q0 200 200 200h1100q200 0 200 -200v-1100q0 -200 -200 -200h-1100q-200 0 -200 200zM1475 201v1099q0 175 -175 175h-1100q-174 0 -175 -175v-1100q1 -175 175 -175h1101q174 0 174 176z" />
    <glyph glyph-name="uni00B2" unicode="&#xb2;" horiz-adv-x="1650" 
d="M0 200v1100q0 200 200 200h1100q200 0 200 -200v-1100q0 -200 -200 -200h-1100q-200 0 -200 200zM1475 201v1099q0 175 -175 175h-1100q-174 0 -175 -175v-1100q1 -175 175 -175h1101q174 0 174 176z" />
    <glyph glyph-name="uni00B3" unicode="&#xb3;" horiz-adv-x="1650" 
d="M0 200v1100q0 200 200 200h1100q200 0 200 -200v-1100q0 -200 -200 -200h-1100q-200 0 -200 200zM1475 201v1099q0 175 -175 175h-1100q-174 0 -175 -175v-1100q1 -175 175 -175h1101q174 0 174 176z" />
    <glyph glyph-name="acute" unicode="&#xb4;" horiz-adv-x="800" 
d="M452 1500q-40 0 -40 31q0 9 3 19q271 450 721 450q40 0 40 -31q0 -9 -3 -19q-271 -450 -721 -450z" />
    <glyph glyph-name="mu" unicode="&#xb5;" 
d="M1131 1050h350l-174 -650q-107 -400 -507 -400h-450l-94 -350h-349l374 1400h350l-227 -850h250q250 0 303 200z" />
    <glyph glyph-name="paragraph" unicode="&#xb6;" horiz-adv-x="1024" 
d="M1314 1435l-19 -70h-127l-366 -1365h-82l366 1365h-166l-366 -1365h-84l198 738q-172 8 -248 103q-50 61 -50 148q0 45 14 97q42 157 175.5 253t311.5 96h443z" />
    <glyph glyph-name="periodcentered" unicode="&#xb7;" horiz-adv-x="500" 
d="M211 600q-40 0 -40 31q0 9 3 19l40 150q14 50 64 50h250q39 0 39 -31q0 -8 -3 -19l-40 -150q-13 -50 -63 -50h-250z" />
    <glyph glyph-name="periodcentered" unicode="&#x2219;" horiz-adv-x="500" 
d="M211 600q-40 0 -40 31q0 9 3 19l40 150q14 50 64 50h250q39 0 39 -31q0 -8 -3 -19l-40 -150q-13 -50 -63 -50h-250z" />
    <glyph glyph-name="cedilla" unicode="&#xb8;" horiz-adv-x="750" 
d="M600 0q-107 -400 -507 -400h-200l53 200q250 0 304 200h350z" />
    <glyph glyph-name="uni00B9" unicode="&#xb9;" horiz-adv-x="1650" 
d="M0 200v1100q0 200 200 200h1100q200 0 200 -200v-1100q0 -200 -200 -200h-1100q-200 0 -200 200zM1475 201v1099q0 175 -175 175h-1100q-174 0 -175 -175v-1100q1 -175 175 -175h1101q174 0 174 176z" />
    <glyph glyph-name="ordmasculine" unicode="&#xba;" horiz-adv-x="1650" 
d="M0 200v1100q0 200 200 200h1100q200 0 200 -200v-1100q0 -200 -200 -200h-1100q-200 0 -200 200zM1475 201v1099q0 175 -175 175h-1100q-174 0 -175 -175v-1100q1 -175 175 -175h1101q174 0 174 176z" />
    <glyph glyph-name="guillemotright" unicode="&#xbb;" horiz-adv-x="1600" 
d="M1244 725l-309 525h400l309 -525l-590 -525h-400zM644 725l-309 525h400l309 -525l-590 -525h-400z" />
    <glyph glyph-name="onequarter" unicode="&#xbc;" horiz-adv-x="1650" 
d="M0 200v1100q0 200 200 200h1100q200 0 200 -200v-1100q0 -200 -200 -200h-1100q-200 0 -200 200zM1475 201v1099q0 175 -175 175h-1100q-174 0 -175 -175v-1100q1 -175 175 -175h1101q174 0 174 176z" />
    <glyph glyph-name="onehalf" unicode="&#xbd;" horiz-adv-x="1650" 
d="M0 200v1100q0 200 200 200h1100q200 0 200 -200v-1100q0 -200 -200 -200h-1100q-200 0 -200 200zM1475 201v1099q0 175 -175 175h-1100q-174 0 -175 -175v-1100q1 -175 175 -175h1101q174 0 174 176z" />
    <glyph glyph-name="threequarters" unicode="&#xbe;" horiz-adv-x="1650" 
d="M0 200v1100q0 200 200 200h1100q200 0 200 -200v-1100q0 -200 -200 -200h-1100q-200 0 -200 200zM1475 201v1099q0 175 -175 175h-1100q-174 0 -175 -175v-1100q1 -175 175 -175h1101q174 0 174 176z" />
    <glyph glyph-name="questiondown" unicode="&#xbf;" 
d="M918 1000l13 50h350l-13 -50q-107 -400 -507 -400q-250 0 -304 -200q-9 -35 -9 -64q0 -136 206 -136h600l-54 -200h-800q-316 0 -316 249q0 67 23 151q107 400 507 400q250 0 304 200zM1325 1400q40 0 40 -31q0 -9 -3 -19l-40 -150q-14 -50 -64 -50h-250q-39 0 -39 31
q0 8 3 19l40 150q13 50 63 50h250z" />
    <glyph glyph-name="Agrave" unicode="&#xc0;" horiz-adv-x="1500" 
d="M1161 600l161 600h-300q-350 0 -484 -500l-27 -100h650zM457 400l-107 -400h-350l188 700q187 700 787 700h750l-375 -1400h-350l107 400h-650zM873 1950q13 50 63 50q450 0 479 -450q-13 -50 -63 -50q-450 0 -479 450z" />
    <glyph glyph-name="Aacute" unicode="&#xc1;" horiz-adv-x="1500" 
d="M1161 600l161 600h-300q-350 0 -484 -500l-27 -100h650zM457 400l-107 -400h-350l188 700q187 700 787 700h750l-375 -1400h-350l107 400h-650zM802 1500q-40 0 -40 31q0 9 3 19q271 450 721 450q40 0 40 -31q0 -9 -3 -19q-271 -450 -721 -450z" />
    <glyph glyph-name="Acircumflex" unicode="&#xc2;" horiz-adv-x="1500" 
d="M1161 600l161 600h-300q-350 0 -484 -500l-27 -100h650zM457 400l-107 -400h-350l188 700q187 700 787 700h750l-375 -1400h-350l107 400h-650zM1156 1700l-204 -200h-350l484 500h300l216 -500h-350z" />
    <glyph glyph-name="Atilde" unicode="&#xc3;" horiz-adv-x="1500" 
d="M1161 600l161 600h-300q-350 0 -484 -500l-27 -100h650zM457 400l-107 -400h-350l188 700q187 700 787 700h750l-375 -1400h-350l107 400h-650zM1134.5 1900q61.5 -50 111.5 -50q100 0 177 100l273 -100q-294 -350 -394 -350t-161.5 50t-111.5 50q-100 0 -177 -100
l-273 100q294 350 394 350t161.5 -50z" />
    <glyph glyph-name="Adieresis" unicode="&#xc4;" horiz-adv-x="1500" 
d="M1161 600l161 600h-300q-350 0 -484 -500l-27 -100h650zM457 400l-107 -400h-350l188 700q187 700 787 700h750l-375 -1400h-350l107 400h-650zM665 1550q-39 0 -39 31q0 8 3 19l40 150q13 50 63 50h250q40 0 40 -31q0 -9 -3 -19l-40 -150q-14 -50 -64 -50h-250z
M1315 1550q-39 0 -39 31q0 8 3 19l40 150q13 50 63 50h250q40 0 40 -31q0 -9 -3 -19l-40 -150q-14 -50 -64 -50h-250z" />
    <glyph glyph-name="Aring" unicode="&#xc5;" horiz-adv-x="1500" 
d="M1161 600l161 600h-300q-350 0 -484 -500l-27 -100h650zM457 400l-107 -400h-350l188 700q187 700 787 700h750l-375 -1400h-350l107 400h-650zM965 1550q-39 0 -39 31q0 8 3 19l40 150q13 50 63 50h250q40 0 40 -31q0 -9 -3 -19l-40 -150q-14 -50 -64 -50h-250z" />
    <glyph glyph-name="AE" unicode="&#xc6;" horiz-adv-x="1950" 
d="M861 600l161 600q-350 0 -484 -500l-27 -100h350zM2175 1400l-53 -200h-750l-108 -400h550l-53 -200h-550l-107 -400h750l-54 -200h-1100l107 400h-350l-107 -400h-350l188 700q187 700 787 700h1200z" />
    <glyph glyph-name="Ccedilla" unicode="&#xc7;" 
d="M550 0q-410 0 -410 389q0 133 48 311q187 700 787 700h600l-53 -200h-500q-350 0 -484 -500q-37 -138 -37 -239q0 -261 253 -261h500l-54 -200h-300q-107 -400 -507 -400h-200l53 200q250 0 304 200z" />
    <glyph glyph-name="Egrave" unicode="&#xc8;" 
d="M515 600q-14 -76 -14 -138q0 -262 253 -262h500l-54 -200h-600q-457 0 -457 406q0 127 45 294q187 700 787 700h600l-53 -200h-500q-313 0 -454 -400h746l-53 -200h-746zM773 1950q13 50 63 50q450 0 479 -450q-13 -50 -63 -50q-450 0 -479 450z" />
    <glyph glyph-name="Eacute" unicode="&#xc9;" 
d="M515 600q-14 -76 -14 -138q0 -262 253 -262h500l-54 -200h-600q-457 0 -457 406q0 127 45 294q187 700 787 700h600l-53 -200h-500q-313 0 -454 -400h746l-53 -200h-746zM752 1500q-40 0 -40 31q0 9 3 19q271 450 721 450q40 0 40 -31q0 -9 -3 -19q-271 -450 -721 -450z
" />
    <glyph glyph-name="Ecircumflex" unicode="&#xca;" 
d="M515 600q-14 -76 -14 -138q0 -262 253 -262h500l-54 -200h-600q-457 0 -457 406q0 127 45 294q187 700 787 700h600l-53 -200h-500q-313 0 -454 -400h746l-53 -200h-746zM1056 1700l-204 -200h-350l484 500h300l216 -500h-350z" />
    <glyph glyph-name="Edieresis" unicode="&#xcb;" 
d="M515 600q-14 -76 -14 -138q0 -262 253 -262h500l-54 -200h-600q-457 0 -457 406q0 127 45 294q187 700 787 700h600l-53 -200h-500q-313 0 -454 -400h746l-53 -200h-746zM565 1550q-39 0 -39 31q0 8 3 19l40 150q13 50 63 50h250q40 0 40 -31q0 -9 -3 -19l-40 -150
q-14 -50 -64 -50h-250zM1215 1550q-39 0 -39 31q0 8 3 19l40 150q13 50 63 50h250q40 0 40 -31q0 -9 -3 -19l-40 -150q-14 -50 -64 -50h-250z" />
    <glyph glyph-name="Igrave" unicode="&#xcc;" horiz-adv-x="500" 
d="M725 1400l-375 -1400h-349l374 1400h350zM323 1950q13 50 63 50q450 0 479 -450q-13 -50 -63 -50q-450 0 -479 450z" />
    <glyph glyph-name="Iacute" unicode="&#xcd;" horiz-adv-x="500" 
d="M725 1400l-375 -1400h-349l374 1400h350zM302 1500q-40 0 -40 31q0 9 3 19q271 450 721 450q40 0 40 -31q0 -9 -3 -19q-271 -450 -721 -450z" />
    <glyph glyph-name="Icircumflex" unicode="&#xce;" horiz-adv-x="500" 
d="M725 1400l-375 -1400h-349l374 1400h350zM631 1700l-204 -200h-350l484 500h300l216 -500h-350z" />
    <glyph glyph-name="Idieresis" unicode="&#xcf;" horiz-adv-x="500" 
d="M725 1400l-375 -1400h-349l374 1400h350zM140 1550q-39 0 -39 31q0 8 3 19l40 150q13 50 63 50h250q40 0 40 -31q0 -9 -3 -19l-40 -150q-14 -50 -64 -50h-250zM790 1550q-39 0 -39 31q0 8 3 19l40 150q13 50 63 50h250q40 0 40 -31q0 -9 -3 -19l-40 -150q-14 -50 -64 -50
h-250z" />
    <glyph glyph-name="Eth" unicode="&#xd0;" horiz-adv-x="1500" 
d="M414 800l161 600h550q457 0 457 -407q0 -127 -44 -293q-188 -700 -788 -700h-549l147 550h-201l67 250h200zM764 800h250l-67 -250h-250l-93 -350h100q350 0 484 500q37 138 37 239q0 261 -253 261h-100z" />
    <glyph glyph-name="Ntilde" unicode="&#xd1;" horiz-adv-x="1500" 
d="M350 0h-349l374 1400h750q457 0 457 -407q0 -127 -44 -293l-188 -700h-350l188 700q37 138 37 239q0 261 -253 261h-300zM1134.5 1900q61.5 -50 111.5 -50q100 0 177 100l273 -100q-294 -350 -394 -350t-161.5 50t-111.5 50q-100 0 -177 -100l-273 100q294 350 394 350
t161.5 -50z" />
    <glyph glyph-name="Ograve" unicode="&#xd2;" horiz-adv-x="1550" 
d="M539 700q-37 -138 -37 -239q0 -261 253 -261q350 0 484 500q37 138 37 239q0 261 -253 261q-350 0 -484 -500zM1176 1400q457 0 457 -407q0 -127 -44 -293q-188 -700 -788 -700h-200q-457 0 -457 407q0 127 44 293q188 700 788 700h200zM873 1950q13 50 63 50
q450 0 479 -450q-13 -50 -63 -50q-450 0 -479 450z" />
    <glyph glyph-name="Oacute" unicode="&#xd3;" horiz-adv-x="1550" 
d="M539 700q-37 -138 -37 -239q0 -261 253 -261q350 0 484 500q37 138 37 239q0 261 -253 261q-350 0 -484 -500zM1176 1400q457 0 457 -407q0 -127 -44 -293q-188 -700 -788 -700h-200q-457 0 -457 407q0 127 44 293q188 700 788 700h200zM802 1500q-40 0 -40 31q0 9 3 19
q271 450 721 450q40 0 40 -31q0 -9 -3 -19q-271 -450 -721 -450z" />
    <glyph glyph-name="Ocircumflex" unicode="&#xd4;" horiz-adv-x="1550" 
d="M539 700q-37 -138 -37 -239q0 -261 253 -261q350 0 484 500q37 138 37 239q0 261 -253 261q-350 0 -484 -500zM1176 1400q457 0 457 -407q0 -127 -44 -293q-188 -700 -788 -700h-200q-457 0 -457 407q0 127 44 293q188 700 788 700h200zM1156 1700l-204 -200h-350
l484 500h300l216 -500h-350z" />
    <glyph glyph-name="Otilde" unicode="&#xd5;" horiz-adv-x="1550" 
d="M539 700q-37 -138 -37 -239q0 -261 253 -261q350 0 484 500q37 138 37 239q0 261 -253 261q-350 0 -484 -500zM1176 1400q457 0 457 -407q0 -127 -44 -293q-188 -700 -788 -700h-200q-457 0 -457 407q0 127 44 293q188 700 788 700h200zM1184.5 1900q61.5 -50 111.5 -50
q100 0 177 100l273 -100q-294 -350 -394 -350t-161.5 50t-111.5 50q-100 0 -177 -100l-273 100q294 350 394 350t161.5 -50z" />
    <glyph glyph-name="Odieresis" unicode="&#xd6;" horiz-adv-x="1550" 
d="M539 700q-37 -138 -37 -239q0 -261 253 -261q350 0 484 500q37 138 37 239q0 261 -253 261q-350 0 -484 -500zM1176 1400q457 0 457 -407q0 -127 -44 -293q-188 -700 -788 -700h-200q-457 0 -457 407q0 127 44 293q188 700 788 700h200zM665 1550q-39 0 -39 31q0 8 3 19
l40 150q13 50 63 50h250q40 0 40 -31q0 -9 -3 -19l-40 -150q-14 -50 -64 -50h-250zM1315 1550q-39 0 -39 31q0 8 3 19l40 150q13 50 63 50h250q40 0 40 -31q0 -9 -3 -19l-40 -150q-14 -50 -64 -50h-250z" />
    <glyph glyph-name="multiply" unicode="&#xd7;" horiz-adv-x="1300" 
d="M563 700l-291 500h400l154 -265l296 265h400l-559 -500l291 -500h-400l-154 265l-296 -265h-400z" />
    <glyph glyph-name="Oslash" unicode="&#xd8;" horiz-adv-x="1550" 
d="M177 216q-34 80 -34 191q0 127 45 293q188 700 788 700h200q126 0 217 -31l32 31h400l-226 -215q34 -81 34 -192q0 -127 -44 -293q-188 -700 -788 -700h-200q-127 0 -219 31l-32 -31h-400zM1272 875l-672 -638q60 -37 155 -37q350 0 484 500q26 97 33 175zM505 527
l671 637q-59 36 -153 36q-350 0 -484 -500q-26 -96 -34 -173z" />
    <glyph glyph-name="Ugrave" unicode="&#xd9;" horiz-adv-x="1550" 
d="M1425 1399l350 1l-186 -700q-188 -700 -788 -700h-200q-457 0 -457 407q0 127 44 293l187 701l350 -1l-187 -700h1q-37 -138 -37 -239q0 -261 253 -261q350 0 484 500zM873 1950q13 50 63 50q450 0 479 -450q-13 -50 -63 -50q-450 0 -479 450z" />
    <glyph glyph-name="Uacute" unicode="&#xda;" horiz-adv-x="1550" 
d="M1425 1399l350 1l-186 -700q-188 -700 -788 -700h-200q-457 0 -457 407q0 127 44 293l187 701l350 -1l-187 -700h1q-37 -138 -37 -239q0 -261 253 -261q350 0 484 500zM802 1500q-40 0 -40 31q0 9 3 19q271 450 721 450q40 0 40 -31q0 -9 -3 -19q-271 -450 -721 -450z
" />
    <glyph glyph-name="Ucircumflex" unicode="&#xdb;" horiz-adv-x="1550" 
d="M1425 1399l350 1l-186 -700q-188 -700 -788 -700h-200q-457 0 -457 407q0 127 44 293l187 701l350 -1l-187 -700h1q-37 -138 -37 -239q0 -261 253 -261q350 0 484 500zM1156 1700l-204 -200h-350l484 500h300l216 -500h-350z" />
    <glyph glyph-name="Udieresis" unicode="&#xdc;" horiz-adv-x="1550" 
d="M1425 1399l350 1l-186 -700q-188 -700 -788 -700h-200q-457 0 -457 407q0 127 44 293l187 701l350 -1l-187 -700h1q-37 -138 -37 -239q0 -261 253 -261q350 0 484 500zM665 1550q-39 0 -39 31q0 8 3 19l40 150q13 50 63 50h250q40 0 40 -31q0 -9 -3 -19l-40 -150
q-14 -50 -64 -50h-250zM1315 1550q-39 0 -39 31q0 8 3 19l40 150q13 50 63 50h250q40 0 40 -31q0 -9 -3 -19l-40 -150q-14 -50 -64 -50h-250z" />
    <glyph glyph-name="Yacute" unicode="&#xdd;" horiz-adv-x="1400" 
d="M1625 1400l-134 -500q-107 -400 -507 -400h-50l-134 -500h-349l133 500h-49q-317 0 -317 249q0 67 23 151l134 500h350l-134 -500q-9 -35 -9 -64q0 -136 206 -136h50q250 0 303 200l134 500h350zM752 1500q-40 0 -40 31q0 9 3 19q271 450 721 450q40 0 40 -31
q0 -9 -3 -19q-271 -450 -721 -450z" />
    <glyph glyph-name="Thorn" unicode="&#xde;" 
d="M484 500h250q250 0 304 200q9 35 9 64q0 136 -206 136h-250zM645 1100h450q316 0 316 -249q0 -67 -23 -151q-108 -400 -508 -400h-450l-80 -300h-349l294 1100l80 300h350z" />
    <glyph glyph-name="germandbls" unicode="&#xdf;" 
d="M268 1000q107 400 507 400h400q316 0 316 -249q0 -67 -23 -151q-54 -200 -180 -300q42 -57 42 -148q0 -67 -23 -152q-107 -400 -507 -400h-200l54 200q250 0 303 200q10 36 10 65q0 135 -206 135l53 200q250 0 304 200q10 36 10 65q0 135 -206 135q-250 0 -304 -200
l-268 -1000h-350z" />
    <glyph glyph-name="agrave" unicode="&#xe0;" 
d="M971 451l-350 -1q-152 -5 -177 -100l-14 -50q-4 -15 -4 -27q0 -73 128 -73h350zM1200 0h-750q-382 0 -382 216q0 39 12 84l14 51q79 294 529 294h250q150 0 178 105q4 15 4 28q0 72 -127 72h-700l53 200h750q377 0 377 -228q0 -44 -14 -97zM729 1600q13 50 63 50
q450 0 480 -450q-14 -50 -64 -50q-450 0 -479 450z" />
    <glyph glyph-name="aacute" unicode="&#xe1;" 
d="M971 451l-350 -1q-152 -5 -177 -100l-14 -50q-4 -15 -4 -27q0 -73 128 -73h350zM1200 0h-750q-382 0 -382 216q0 39 12 84l14 51q79 294 529 294h250q150 0 178 105q4 15 4 28q0 72 -127 72h-700l53 200h750q377 0 377 -228q0 -44 -14 -97zM658 1150q-39 0 -39 31
q0 8 3 19q270 450 720 450q40 0 40 -31q0 -9 -3 -19q-271 -450 -721 -450z" />
    <glyph glyph-name="acircumflex" unicode="&#xe2;" 
d="M971 451l-350 -1q-152 -5 -177 -100l-14 -50q-4 -15 -4 -27q0 -73 128 -73h350zM1200 0h-750q-382 0 -382 216q0 39 12 84l14 51q79 294 529 294h250q150 0 178 105q4 15 4 28q0 72 -127 72h-700l53 200h750q377 0 377 -228q0 -44 -14 -97zM962 1350l-204 -200h-350
l484 500h300l216 -500h-350z" />
    <glyph glyph-name="atilde" unicode="&#xe3;" 
d="M971 451l-350 -1q-152 -5 -177 -100l-14 -50q-4 -15 -4 -27q0 -73 128 -73h350zM1200 0h-750q-382 0 -382 216q0 39 12 84l14 51q79 294 529 294h250q150 0 178 105q4 15 4 28q0 72 -127 72h-700l53 200h750q377 0 377 -228q0 -44 -14 -97zM990.5 1550
q61.5 -50 111.5 -50q100 0 177 100l273 -100q-294 -350 -394 -350t-161.5 50t-111.5 50q-100 0 -177 -100l-273 100q294 350 394 350t161.5 -50z" />
    <glyph glyph-name="adieresis" unicode="&#xe4;" 
d="M971 451l-350 -1q-152 -5 -177 -100l-14 -50q-4 -15 -4 -27q0 -73 128 -73h350zM1200 0h-750q-382 0 -382 216q0 39 12 84l14 51q79 294 529 294h250q150 0 178 105q4 15 4 28q0 72 -127 72h-700l53 200h750q377 0 377 -228q0 -44 -14 -97zM458 1150q-39 0 -39 31
q0 8 3 19l40 150q13 50 63 50h250q40 0 40 -31q0 -9 -3 -19l-40 -150q-14 -50 -64 -50h-250zM1108 1150q-39 0 -39 31q0 8 3 19l40 150q13 50 63 50h250q40 0 40 -31q0 -9 -3 -19l-40 -150q-14 -50 -64 -50h-250z" />
    <glyph glyph-name="aring" unicode="&#xe5;" 
d="M971 451l-350 -1q-152 -5 -177 -100l-14 -50q-4 -15 -4 -27q0 -73 128 -73h350zM1200 0h-750q-382 0 -382 216q0 39 12 84l14 51q79 294 529 294h250q150 0 178 105q4 15 4 28q0 72 -127 72h-700l53 200h750q377 0 377 -228q0 -44 -14 -97zM758 1150q-39 0 -39 31
q0 8 3 19l40 150q13 50 63 50h250q40 0 40 -31q0 -9 -3 -19l-40 -150q-14 -50 -64 -50h-250z" />
    <glyph glyph-name="ae" unicode="&#xe6;" horiz-adv-x="1800" 
d="M1001 5l-1 -5h-550q-382 0 -382 216q0 39 12 84l14 51q79 294 529 294h50q150 0 178 105q4 15 4 28q0 72 -127 72h-500l53 200h550q158 0 251 -40q103 40 249 40h150q382 0 382 -216q0 -39 -12 -84l-13 -50q-81 -300 -531 -300h-50q-150 0 -177 -100q-4 -15 -4 -27
q0 -73 128 -73h500l-54 -200h-550q-53 0 -99 5zM1159 595q49 5 102 5h50q150 0 177 100l13 50q4 15 4 28q0 72 -127 72q-150 0 -178 -102zM771 451l-150 -1q-152 -5 -177 -100l-14 -50q-4 -15 -4 -27q0 -73 128 -73h150z" />
    <glyph glyph-name="ccedilla" unicode="&#xe7;" horiz-adv-x="1200" 
d="M450 0h-50q-316 0 -316 249q0 67 23 151l67 250q107 400 507 400h651l-53 -200h-451q-250 0 -304 -200l-67 -250q-9 -35 -9 -64q0 -136 206 -136h450l-53 -200h-251q-107 -400 -507 -400h-200l53 200q250 0 304 200z" />
    <glyph glyph-name="egrave" unicode="&#xe8;" 
d="M509 595q49 5 102 5h250q150 0 177 100l13 50q4 15 4 28q0 72 -127 72h-200q-150 0 -178 -102zM201 750q80 300 480 300h350q382 0 382 -216q0 -39 -12 -84l-13 -50q-81 -300 -531 -300h-250q-150 0 -177 -100q-4 -15 -4 -27q0 -73 128 -73h700l-54 -200h-750
q-377 0 -377 228q0 44 14 97zM729 1600q13 50 63 50q450 0 480 -450q-14 -50 -64 -50q-450 0 -479 450z" />
    <glyph glyph-name="eacute" unicode="&#xe9;" 
d="M509 595q49 5 102 5h250q150 0 177 100l13 50q4 15 4 28q0 72 -127 72h-200q-150 0 -178 -102zM201 750q80 300 480 300h350q382 0 382 -216q0 -39 -12 -84l-13 -50q-81 -300 -531 -300h-250q-150 0 -177 -100q-4 -15 -4 -27q0 -73 128 -73h700l-54 -200h-750
q-377 0 -377 228q0 44 14 97zM658 1150q-39 0 -39 31q0 8 3 19q270 450 720 450q40 0 40 -31q0 -9 -3 -19q-271 -450 -721 -450z" />
    <glyph glyph-name="ecircumflex" unicode="&#xea;" 
d="M509 595q49 5 102 5h250q150 0 177 100l13 50q4 15 4 28q0 72 -127 72h-200q-150 0 -178 -102zM201 750q80 300 480 300h350q382 0 382 -216q0 -39 -12 -84l-13 -50q-81 -300 -531 -300h-250q-150 0 -177 -100q-4 -15 -4 -27q0 -73 128 -73h700l-54 -200h-750
q-377 0 -377 228q0 44 14 97zM962 1350l-204 -200h-350l484 500h300l216 -500h-350z" />
    <glyph glyph-name="edieresis" unicode="&#xeb;" 
d="M509 595q49 5 102 5h250q150 0 177 100l13 50q4 15 4 28q0 72 -127 72h-200q-150 0 -178 -102zM201 750q80 300 480 300h350q382 0 382 -216q0 -39 -12 -84l-13 -50q-81 -300 -531 -300h-250q-150 0 -177 -100q-4 -15 -4 -27q0 -73 128 -73h700l-54 -200h-750
q-377 0 -377 228q0 44 14 97zM458 1150q-39 0 -39 31q0 8 3 19l40 150q13 50 63 50h250q40 0 40 -31q0 -9 -3 -19l-40 -150q-14 -50 -64 -50h-250zM1108 1150q-39 0 -39 31q0 8 3 19l40 150q13 50 63 50h250q40 0 40 -31q0 -9 -3 -19l-40 -150q-14 -50 -64 -50h-250z" />
    <glyph glyph-name="igrave" unicode="&#xec;" horiz-adv-x="500" 
d="M350 0h-350l281 1050h350zM229 1600q13 50 63 50q450 0 480 -450q-14 -50 -64 -50q-450 0 -479 450z" />
    <glyph glyph-name="iacute" unicode="&#xed;" horiz-adv-x="500" 
d="M350 0h-350l281 1050h350zM208 1150q-39 0 -39 31q0 8 3 19q270 450 720 450q40 0 40 -31q0 -9 -3 -19q-271 -450 -721 -450z" />
    <glyph glyph-name="icircumflex" unicode="&#xee;" horiz-adv-x="500" 
d="M350 0h-350l281 1050h350zM537 1350l-204 -200h-350l484 500h300l216 -500h-350z" />
    <glyph glyph-name="idieresis" unicode="&#xef;" horiz-adv-x="500" 
d="M350 0h-350l281 1050h350zM33 1150q-39 0 -39 31q0 8 3 19l40 150q13 50 63 50h250q40 0 40 -31q0 -9 -3 -19l-40 -150q-14 -50 -64 -50h-250zM683 1150q-39 0 -39 31q0 8 3 19l40 150q13 50 63 50h250q40 0 40 -31q0 -9 -3 -19l-40 -150q-14 -50 -64 -50h-250z" />
    <glyph glyph-name="eth" unicode="&#xf0;" horiz-adv-x="1550" 
d="M1038 700h-250q-250 0 -304 -200l-27 -100q-9 -35 -9 -64q0 -136 206 -136h250zM1480 1050l-280 -1050h-800q-316 0 -316 249q0 67 23 151l27 100q107 400 507 400h450l40 150h-200l54 200h200l40 150h349l-40 -150h201l-54 -200h-201z" />
    <glyph glyph-name="ntilde" unicode="&#xf1;" 
d="M350 0h-350l281 1050h800q316 0 316 -249q0 -67 -23 -151l-174 -650l-350 1l174 649q10 36 10 65q0 135 -206 135h-250zM990.5 1550q61.5 -50 111.5 -50q100 0 177 100l273 -100q-294 -350 -394 -350t-161.5 50t-111.5 50q-100 0 -177 -100l-273 100q294 350 394 350
t161.5 -50z" />
    <glyph glyph-name="ograve" unicode="&#xf2;" 
d="M400 0q-316 0 -316 249q0 67 23 151l67 250q107 400 507 400h450q268 0 268 -235q0 -71 -25 -165l-67 -250q-107 -400 -507 -400h-400zM1024 650q10 36 10 65q0 135 -206 135q-250 0 -304 -200l-67 -250q-9 -35 -9 -64q0 -136 206 -136q250 0 303 200zM729 1600
q13 50 63 50q450 0 480 -450q-14 -50 -64 -50q-450 0 -479 450z" />
    <glyph glyph-name="oacute" unicode="&#xf3;" 
d="M400 0q-316 0 -316 249q0 67 23 151l67 250q107 400 507 400h450q268 0 268 -235q0 -71 -25 -165l-67 -250q-107 -400 -507 -400h-400zM1024 650q10 36 10 65q0 135 -206 135q-250 0 -304 -200l-67 -250q-9 -35 -9 -64q0 -136 206 -136q250 0 303 200zM658 1150
q-39 0 -39 31q0 8 3 19q270 450 720 450q40 0 40 -31q0 -9 -3 -19q-271 -450 -721 -450z" />
    <glyph glyph-name="ocircumflex" unicode="&#xf4;" 
d="M400 0q-316 0 -316 249q0 67 23 151l67 250q107 400 507 400h450q268 0 268 -235q0 -71 -25 -165l-67 -250q-107 -400 -507 -400h-400zM1024 650q10 36 10 65q0 135 -206 135q-250 0 -304 -200l-67 -250q-9 -35 -9 -64q0 -136 206 -136q250 0 303 200zM962 1350
l-204 -200h-350l484 500h300l216 -500h-350z" />
    <glyph glyph-name="otilde" unicode="&#xf5;" 
d="M400 0q-316 0 -316 249q0 67 23 151l67 250q107 400 507 400h450q268 0 268 -235q0 -71 -25 -165l-67 -250q-107 -400 -507 -400h-400zM1024 650q10 36 10 65q0 135 -206 135q-250 0 -304 -200l-67 -250q-9 -35 -9 -64q0 -136 206 -136q250 0 303 200zM990.5 1550
q61.5 -50 111.5 -50q100 0 177 100l273 -100q-294 -350 -394 -350t-161.5 50t-111.5 50q-100 0 -177 -100l-273 100q294 350 394 350t161.5 -50z" />
    <glyph glyph-name="odieresis" unicode="&#xf6;" 
d="M400 0q-316 0 -316 249q0 67 23 151l67 250q107 400 507 400h450q268 0 268 -235q0 -71 -25 -165l-67 -250q-107 -400 -507 -400h-400zM1024 650q10 36 10 65q0 135 -206 135q-250 0 -304 -200l-67 -250q-9 -35 -9 -64q0 -136 206 -136q250 0 303 200zM458 1150
q-39 0 -39 31q0 8 3 19l40 150q13 50 63 50h250q40 0 40 -31q0 -9 -3 -19l-40 -150q-14 -50 -64 -50h-250zM1108 1150q-39 0 -39 31q0 8 3 19l40 150q13 50 63 50h250q40 0 40 -31q0 -9 -3 -19l-40 -150q-14 -50 -64 -50h-250z" />
    <glyph glyph-name="divide" unicode="&#xf7;" horiz-adv-x="1300" 
d="M161 600l53 200h1150l-53 -200h-1150zM691 900q-39 0 -39 31q0 8 3 19l40 150q13 50 63 50h250q40 0 40 -31q0 -9 -3 -19l-40 -150q-14 -50 -64 -50h-250zM517 250q-40 0 -40 31q0 9 3 19l41 150q13 50 63 50h250q40 0 40 -31q0 -9 -3 -19l-41 -150q-13 -50 -63 -50h-250
z" />
    <glyph glyph-name="oslash" unicode="&#xf8;" 
d="M900 845q-32 5 -72 5q-250 0 -304 -200l-49 -183zM581 205q33 -5 73 -5q250 0 303 200l49 183zM1383 918q16 -44 16 -102q0 -72 -25 -166l-67 -250q-107 -400 -507 -400h-400q-25 0 -48 2l-2 -2h-400l155 138q-21 47 -21 111q0 67 23 151l67 250q107 400 507 400h850z
" />
    <glyph glyph-name="ugrave" unicode="&#xf9;" 
d="M1131 1050h350l-174 -650q-107 -400 -507 -400h-400q-316 0 -316 249q0 67 23 151l174 650h350l-174 -650q-9 -35 -9 -64q0 -136 206 -136q250 0 303 200zM729 1600q13 50 63 50q450 0 480 -450q-14 -50 -64 -50q-450 0 -479 450z" />
    <glyph glyph-name="uacute" unicode="&#xfa;" 
d="M1131 1050h350l-174 -650q-107 -400 -507 -400h-400q-316 0 -316 249q0 67 23 151l174 650h350l-174 -650q-9 -35 -9 -64q0 -136 206 -136q250 0 303 200zM658 1150q-39 0 -39 31q0 8 3 19q270 450 720 450q40 0 40 -31q0 -9 -3 -19q-271 -450 -721 -450z" />
    <glyph glyph-name="ucircumflex" unicode="&#xfb;" 
d="M1131 1050h350l-174 -650q-107 -400 -507 -400h-400q-316 0 -316 249q0 67 23 151l174 650h350l-174 -650q-9 -35 -9 -64q0 -136 206 -136q250 0 303 200zM962 1350l-204 -200h-350l484 500h300l216 -500h-350z" />
    <glyph glyph-name="udieresis" unicode="&#xfc;" 
d="M1131 1050h350l-174 -650q-107 -400 -507 -400h-400q-316 0 -316 249q0 67 23 151l174 650h350l-174 -650q-9 -35 -9 -64q0 -136 206 -136q250 0 303 200zM458 1150q-39 0 -39 31q0 8 3 19l40 150q13 50 63 50h250q40 0 40 -31q0 -9 -3 -19l-40 -150q-14 -50 -64 -50
h-250zM1108 1150q-39 0 -39 31q0 8 3 19l40 150q13 50 63 50h250q40 0 40 -31q0 -9 -3 -19l-40 -150q-14 -50 -64 -50h-250z" />
    <glyph glyph-name="yacute" unicode="&#xfd;" 
d="M1131 1050h350l-281 -1050q-107 -400 -507 -400h-600l53 200h400q250 0 304 200h-450q-316 0 -316 249q0 67 23 151l174 649l350 -1l-174 -648q-9 -35 -9 -64q0 -136 206 -136h250zM658 1150q-39 0 -39 31q0 8 3 19q270 450 720 450q40 0 40 -31q0 -9 -3 -19
q-271 -450 -721 -450z" />
    <glyph glyph-name="thorn" unicode="&#xfe;" 
d="M404 200h250q250 0 303 200l67 250q10 36 10 65q0 135 -206 135h-250zM631 1050h450q316 0 316 -249q0 -67 -23 -151l-67 -250q-107 -400 -507 -400h-450l-94 -350h-349l361 1350l107 400h350z" />
    <glyph glyph-name="ydieresis" unicode="&#xff;" 
d="M1131 1050h350l-281 -1050q-107 -400 -507 -400h-600l53 200h400q250 0 304 200h-450q-316 0 -316 249q0 67 23 151l174 649l350 -1l-174 -648q-9 -35 -9 -64q0 -136 206 -136h250zM458 1150q-39 0 -39 31q0 8 3 19l40 150q13 50 63 50h250q40 0 40 -31q0 -9 -3 -19
l-40 -150q-14 -50 -64 -50h-250zM1108 1150q-39 0 -39 31q0 8 3 19l40 150q13 50 63 50h250q40 0 40 -31q0 -9 -3 -19l-40 -150q-14 -50 -64 -50h-250z" />
    <glyph glyph-name="dotlessi" unicode="&#x131;" horiz-adv-x="500" 
d="M350 0h-350l281 1050h350z" />
    <glyph glyph-name="circumflex" unicode="&#x2c6;" horiz-adv-x="1150" 
d="M956 1700l-204 -200h-350l484 500h300l216 -500h-350z" />
    <glyph glyph-name="caron" unicode="&#x2c7;" horiz-adv-x="1150" 
d="M1186 2000h350l-484 -500h-300l-216 500h350l96 -200z" />
    <glyph glyph-name="uni02C9" unicode="&#x2c9;" horiz-adv-x="1024" 
d="M574 1195l34 125h516l-34 -125h-516z" />
    <glyph glyph-name="breve" unicode="&#x2d8;" horiz-adv-x="1024" 
d="M580 1349h51v-6q0 -68 47 -101q49 -34 158 -34t175 33.5t102 107.5h51q-55 -133 -147.5 -201.5t-215.5 -68.5q-122 0 -178 69q-46 55 -46 151q0 24 3 50z" />
    <glyph glyph-name="dotaccent" unicode="&#x2d9;" horiz-adv-x="500" 
d="M465 1550q-39 0 -39 31q0 8 3 19l40 150q13 50 63 50h250q40 0 40 -31q0 -9 -3 -19l-40 -150q-14 -50 -64 -50h-250z" />
    <glyph glyph-name="ring" unicode="&#x2da;" horiz-adv-x="500" 
d="M465 1550q-39 0 -39 31q0 8 3 19l40 150q13 50 63 50h250q40 0 40 -31q0 -9 -3 -19l-40 -150q-14 -50 -64 -50h-250z" />
    <glyph glyph-name="ogonek" unicode="&#x2db;" horiz-adv-x="750" 
d="M350 0q-10 -36 -10 -65q0 -135 206 -135l-53 -200h-200q-316 0 -316 249q0 67 23 151h350z" />
    <glyph glyph-name="tilde" unicode="&#x2dc;" horiz-adv-x="1200" 
d="M984.5 1900q61.5 -50 111.5 -50q100 0 177 100l273 -100q-294 -350 -394 -350t-161.5 50t-111.5 50q-100 0 -177 -100l-273 100q294 350 394 350t161.5 -50z" />
    <glyph glyph-name="hungarumlaut" unicode="&#x2dd;" horiz-adv-x="1024" 
d="M506 1079l217 273q36 44 62.5 63t51.5 19q28 0 43 -20q10 -13 10 -29q0 -9 -3 -18q-4 -16 -19.5 -35t-41.5 -41l-262 -212h-58zM791 1079l217 273q36 44 62.5 63t51.5 19q28 0 43 -20q10 -13 10 -29q0 -9 -3 -18q-4 -16 -19.5 -35t-41.5 -41l-262 -212h-58z" />
    <glyph glyph-name="endash" unicode="&#x2013;" horiz-adv-x="1108" 
d="M168 419l32 120h996l-32 -120h-996z" />
    <glyph glyph-name="emdash" unicode="&#x2014;" horiz-adv-x="2048" 
d="M112 419l32 120h2048l-32 -120h-2048z" />
    <glyph glyph-name="quoteleft" unicode="&#x2018;" horiz-adv-x="500" 
d="M541 900q-236 0 -236 186q0 50 17 114l40 150q13 50 63 50h250q40 0 40 -31q0 -9 -3 -19l-107 -400q-14 -50 -64 -50z" />
    <glyph glyph-name="quoteright" unicode="&#x2019;" horiz-adv-x="500" 
d="M291 900q-39 0 -39 31q0 8 3 19l107 400q13 50 63 50h250q40 0 40 -31q0 -9 -3 -19l-40 -150q-81 -300 -381 -300z" />
    <glyph glyph-name="quotesinglbase" unicode="&#x201a;" horiz-adv-x="500" 
d="M-17 -250q-40 0 -40 31q0 9 3 19l108 400q13 50 63 50h250q40 0 40 -31q0 -9 -3 -19l-41 -150q-80 -300 -380 -300z" />
    <glyph glyph-name="quotedblleft" unicode="&#x201c;" horiz-adv-x="950" 
d="M541 900q-236 0 -236 186q0 50 17 114l40 150q13 50 63 50h250q40 0 40 -31q0 -9 -3 -19l-107 -400q-14 -50 -64 -50zM991 900q-236 0 -236 186q0 50 17 114l40 150q13 50 63 50h250q40 0 40 -31q0 -9 -3 -19l-107 -400q-14 -50 -64 -50z" />
    <glyph glyph-name="quotedblright" unicode="&#x201d;" horiz-adv-x="950" 
d="M741 900q-39 0 -39 31q0 8 3 19l107 400q13 50 63 50h250q40 0 40 -31q0 -9 -3 -19l-40 -150q-81 -300 -381 -300zM291 900q-39 0 -39 31q0 8 3 19l107 400q13 50 63 50h250q40 0 40 -31q0 -9 -3 -19l-40 -150q-81 -300 -381 -300z" />
    <glyph glyph-name="quotedblbase" unicode="&#x201e;" horiz-adv-x="950" 
d="M433 -250q-40 0 -40 31q0 9 3 19l108 400q13 50 63 50h250q40 0 40 -31q0 -9 -3 -19l-41 -150q-80 -300 -380 -300zM-17 -250q-40 0 -40 31q0 9 3 19l108 400q13 50 63 50h250q40 0 40 -31q0 -9 -3 -19l-41 -150q-80 -300 -380 -300z" />
    <glyph glyph-name="dagger" unicode="&#x2020;" horiz-adv-x="1014" 
d="M760 1022q8 42 8 80q0 52 -14 98q-24 82 -24 116q0 8 1 13q13 49 57 78.5t104 29.5q57 0 87 -27q22 -21 22 -50q0 -10 -3 -22q-9 -32 -92 -137q-69 -85 -103 -179q98 8 191 54q117 57 145 57q49 0 69 -36q11 -20 11 -47q0 -22 -7 -49q-15 -57 -52.5 -94.5t-82.5 -37.5
q-32 0 -121 55q-73 46 -164 57q-13 -60 -13 -112q0 -99 49 -165q-230 -460 -373 -974h-38q131 514 147 974q129 101 185 277q-99 -10 -193 -55q-116 -57 -144 -57q-49 0 -69 36q-11 20 -11 47q0 22 7 49q15 57 53 94.5t82 37.5q32 0 122 -56q72 -46 164 -55z" />
    <glyph glyph-name="daggerdbl" unicode="&#x2021;" horiz-adv-x="1014" 
d="M578 186q97 11 194 57q119 55 151 55q45 0 63 -37q9 -20 9 -45q0 -23 -8 -50q-16 -60 -55.5 -96t-88.5 -36q-28 0 -114 57q-68 46 -162 54q-7 -39 -7 -76q0 -53 14 -103q20 -79 20 -116q0 -13 -2 -21q-12 -44 -56.5 -71.5t-101.5 -27.5q-60 0 -88 30q-20 19 -20 48
q0 14 5 30q7 28 91 129q68 81 102 178q-97 -9 -194 -55q-120 -56 -152 -56q-44 0 -61 38q-10 20 -10 46q0 22 7 48q17 60 56 96t88 36q28 0 114 -57q70 -45 163 -55q24 108 24 203q0 105 -29 195q148 171 218 397q-99 -10 -193 -55q-116 -57 -144 -57q-49 0 -69 36
q-11 20 -11 47q0 22 7 49q15 57 53 94.5t82 37.5q32 0 122 -56q72 -46 164 -55q8 42 8 80q0 52 -14 98q-24 82 -24 116q0 8 1 13q13 49 57 78.5t104 29.5q57 0 87 -27q22 -21 22 -50q0 -10 -3 -22q-9 -32 -92 -137q-69 -85 -103 -179q98 8 191 54q117 57 145 57q49 0 69 -36
q11 -20 11 -47q0 -22 -7 -49q-15 -57 -52.5 -94.5t-82.5 -37.5q-32 0 -121 55q-73 46 -164 57q-26 -110 -26 -207q0 -102 29 -190q-148 -172 -216 -398z" />
    <glyph glyph-name="bullet" unicode="&#x2022;" horiz-adv-x="850" 
d="M672 1200q253 0 253 -261q0 -101 -37 -239q-134 -500 -484 -500q-253 0 -253 261q0 101 37 239q134 500 484 500z" />
    <glyph glyph-name="ellipsis" unicode="&#x2026;" horiz-adv-x="1400" 
d="M50 0q-40 0 -40 31q0 9 3 19l41 150q13 50 63 50h250q40 0 40 -31q0 -9 -3 -19l-41 -150q-13 -50 -63 -50h-250zM500 0q-40 0 -40 31q0 9 3 19l41 150q13 50 63 50h250q40 0 40 -31q0 -9 -3 -19l-41 -150q-13 -50 -63 -50h-250zM950 0q-40 0 -40 31q0 9 3 19l41 150
q13 50 63 50h250q40 0 40 -31q0 -9 -3 -19l-41 -150q-13 -50 -63 -50h-250z" />
    <glyph glyph-name="guilsinglleft" unicode="&#x2039;" horiz-adv-x="1000" 
d="M904 200h-400l-310 525l591 525h400l-591 -525z" />
    <glyph glyph-name="guilsinglright" unicode="&#x203a;" horiz-adv-x="1000" 
d="M644 725l-309 525h400l309 -525l-590 -525h-400z" />
    <glyph glyph-name="fraction" unicode="&#x2044;" horiz-adv-x="1450" 
d="M1325 1400h400l-1375 -1400h-400z" />
    <glyph glyph-name="fraction" unicode="&#x2215;" horiz-adv-x="1450" 
d="M1325 1400h400l-1375 -1400h-400z" />
    <glyph glyph-name="franc" unicode="&#x20a3;" 
d="M307 400l81 300q187 700 787 700h400l-53 -200h-300q-350 0 -458 -400h550l-53 -200h-550l-54 -200h200l-53 -200h-200l-54 -200h-350l54 200h-200l53 200h200z" />
    <glyph glyph-name="lira" unicode="&#x20a4;" 
d="M254 200l107 400h-200l53 200h203q203 600 758 600h400l-53 -200h-300q-350 0 -458 -400h550l-53 -200h-550l-107 -400h650l-54 -200h-1200l54 200h200z" />
    <glyph glyph-name="peseta" unicode="&#x20a7;" 
d="M764 800h50q250 0 304 200q10 36 10 65q0 135 -206 135h-50zM308 400l267 1000h600q316 0 316 -249q0 -67 -23 -151q-107 -400 -507 -400h-250l-54 -200h200l-53 -200h-200l-54 -200h-349l54 200h-201l53 200h201z" />
    <glyph glyph-name="Euro" unicode="&#x20ac;" 
d="M701 450q6 -250 253 -250h300l-54 -200h-400q-456 0 -456 405q0 22 1 45h-224l53 200h201q6 25 13 50q6 25 14 50h-201l54 200h224q215 450 696 450h400l-53 -200h-300q-247 0 -387 -250h620l-54 -200h-649l-14 -50l-13 -50h649l-53 -200h-620z" />
    <glyph glyph-name="afii61352" unicode="&#x2116;" horiz-adv-x="1600" 
d="M363 700h-175l187 700h375q228 0 228 -203q0 -63 -22 -147l-93 -350h-175l93 350q19 69 19 119q0 131 -127 131h-150zM1207 1050q-19 -69 -19 -119q0 -131 127 -131q175 0 242 250q19 69 19 119q0 131 -127 131q-175 0 -242 -250zM1526 1400q228 0 228 -203
q0 -63 -22 -147q-94 -350 -394 -350h-100q-229 0 -229 204q0 63 22 146q95 350 395 350h100z" />
    <glyph glyph-name="trademark" unicode="&#x2122;" horiz-adv-x="1825" 
d="M1000 1400l-27 -100h-225l-160 -600h-175l160 600h-225l27 100h625zM1750 1400q228 0 228 -203q0 -63 -22 -147l-93 -350h-175l93 350q19 69 19 119q0 131 -127 131h-50l-160 -600h-175l160 600h-225l-160 -600h-175l187 700h675z" />
    <glyph glyph-name="partialdiff" unicode="&#x2202;" horiz-adv-x="1650" 
d="M0 200v1100q0 200 200 200h1100q200 0 200 -200v-1100q0 -200 -200 -200h-1100q-200 0 -200 200zM1475 201v1099q0 175 -175 175h-1100q-174 0 -175 -175v-1100q1 -175 175 -175h1101q174 0 174 176z" />
    <glyph glyph-name="Delta" unicode="&#x2206;" horiz-adv-x="1650" 
d="M0 200v1100q0 200 200 200h1100q200 0 200 -200v-1100q0 -200 -200 -200h-1100q-200 0 -200 200zM1475 201v1099q0 175 -175 175h-1100q-174 0 -175 -175v-1100q1 -175 175 -175h1101q174 0 174 176z" />
    <glyph glyph-name="product" unicode="&#x220f;" horiz-adv-x="1650" 
d="M0 200v1100q0 200 200 200h1100q200 0 200 -200v-1100q0 -200 -200 -200h-1100q-200 0 -200 200zM1475 201v1099q0 175 -175 175h-1100q-174 0 -175 -175v-1100q1 -175 175 -175h1101q174 0 174 176z" />
    <glyph glyph-name="summation" unicode="&#x2211;" horiz-adv-x="1650" 
d="M0 200v1100q0 200 200 200h1100q200 0 200 -200v-1100q0 -200 -200 -200h-1100q-200 0 -200 200zM1475 201v1099q0 175 -175 175h-1100q-174 0 -175 -175v-1100q1 -175 175 -175h1101q174 0 174 176z" />
    <glyph glyph-name="minus" unicode="&#x2212;" horiz-adv-x="1014" 
d="M260 647l38 140h839l1 -1l-38 -139h-840z" />
    <glyph glyph-name="radical" unicode="&#x221a;" horiz-adv-x="1650" 
d="M0 200v1100q0 200 200 200h1100q200 0 200 -200v-1100q0 -200 -200 -200h-1100q-200 0 -200 200zM1475 201v1099q0 175 -175 175h-1100q-174 0 -175 -175v-1100q1 -175 175 -175h1101q174 0 174 176z" />
    <glyph glyph-name="infinity" unicode="&#x221e;" horiz-adv-x="1650" 
d="M0 200v1100q0 200 200 200h1100q200 0 200 -200v-1100q0 -200 -200 -200h-1100q-200 0 -200 200zM1475 201v1099q0 175 -175 175h-1100q-174 0 -175 -175v-1100q1 -175 175 -175h1101q174 0 174 176z" />
    <glyph glyph-name="integral" unicode="&#x222b;" horiz-adv-x="1650" 
d="M0 200v1100q0 200 200 200h1100q200 0 200 -200v-1100q0 -200 -200 -200h-1100q-200 0 -200 200zM1475 201v1099q0 175 -175 175h-1100q-174 0 -175 -175v-1100q1 -175 175 -175h1101q174 0 174 176z" />
    <glyph glyph-name="approxequal" unicode="&#x2248;" horiz-adv-x="1650" 
d="M0 200v1100q0 200 200 200h1100q200 0 200 -200v-1100q0 -200 -200 -200h-1100q-200 0 -200 200zM1475 201v1099q0 175 -175 175h-1100q-174 0 -175 -175v-1100q1 -175 175 -175h1101q174 0 174 176z" />
    <glyph glyph-name="lessequal" unicode="&#x2264;" horiz-adv-x="1650" 
d="M0 200v1100q0 200 200 200h1100q200 0 200 -200v-1100q0 -200 -200 -200h-1100q-200 0 -200 200zM1475 201v1099q0 175 -175 175h-1100q-174 0 -175 -175v-1100q1 -175 175 -175h1101q174 0 174 176z" />
    <glyph glyph-name="greaterequal" unicode="&#x2265;" horiz-adv-x="1650" 
d="M0 200v1100q0 200 200 200h1100q200 0 200 -200v-1100q0 -200 -200 -200h-1100q-200 0 -200 200zM1475 201v1099q0 175 -175 175h-1100q-174 0 -175 -175v-1100q1 -175 175 -175h1101q174 0 174 176z" />
    <glyph glyph-name="uniF001" unicode="&#xf001;" horiz-adv-x="1073" 
 />
    <glyph glyph-name="uniF001" unicode="&#xfb01;" horiz-adv-x="1073" 
 />
    <glyph glyph-name="uniF002" unicode="&#xf002;" horiz-adv-x="1081" 
 />
    <glyph glyph-name="uniF002" unicode="&#xfb02;" horiz-adv-x="1081" 
 />
  </font>
</defs>
</svg>
